<?xml version="1.0" encoding="UTF-8"?>
<svg width="880px" height="446px" viewBox="0 0 880 446" version="1.1" xmlns="http://www.w3.org/2000/svg" xmlns:xlink="http://www.w3.org/1999/xlink">
    <title>Fill 1</title>
    <g id="Design-patterns" stroke="none" stroke-width="1" fill="none" fill-rule="evenodd" fill-opacity="0.8">
        <g id="design-patterns/hero/desktop-copy" transform="translate(0.000000, -231.000000)" fill="#9C087B">
            <path d="M246.286301,177 C145.279536,177 6.93063917,199.953311 -138.777655,293.01148 C-281.95494,203.182336 -417.928581,180.929296 -517.377802,180.929296 C-697.975095,180.929296 -867.163374,253.990851 -981.565023,381.401179 C-1166.28981,587.475226 -1147.63821,915.007301 -931.91829,1257.673 C-847.382558,1392.20274 -733.79862,1524.20373 -603.510017,1639.20371 C-486.382665,1742.53252 -361.078204,1828.54908 -230.984294,1894.88025 L-130.756301,1946 L-31.0734484,1893.79094 C97.7744263,1826.37046 222.066483,1739.10897 338.337185,1634.49634 C467.418692,1518.25143 579.678717,1385.08333 663.124167,1249.38647 C873.821009,906.681863 889.435393,579.538827 704.866362,374.281762 C591.866503,248.855534 424.780909,177 246.286301,177 M245.147784,397.765836 C367.198472,397.765836 474.494069,448.156886 541.767942,522.791588 C660.781962,654.96611 626.638914,893.944793 476.479583,1137.93539 C405.779727,1252.74306 309.462852,1368.7163 191.538917,1474.82112 C86.3845606,1569.3092 -24.2980889,1645.8865 -133.150951,1702.76584 C-242.62672,1647.01321 -354.399456,1571.56261 -460.410308,1478.12354 C-579.385397,1373.22313 -676.870221,1258.33775 -748.621232,1144.22941 C-901.427915,901.792898 -939.269468,662.153731 -820.527969,529.784949 C-751.969353,453.518463 -642.493584,401.689888 -518.379519,401.689888 C-397.73037,401.689888 -263.182626,450.721119 -138.990697,573.998531 C-12.9300503,447.884922 123.447481,397.765836 245.147784,397.765836" id="Fill-1" transform="translate(-137.500000, 1061.500000) rotate(18.000000) translate(137.500000, -1061.500000) "></path>
        </g>
    </g>
</svg>