<?xml version="1.0" encoding="UTF-8"?>
<svg width="1826px" height="1769px" viewBox="0 0 1826 1769" version="1.1" xmlns="http://www.w3.org/2000/svg" xmlns:xlink="http://www.w3.org/1999/xlink">
    <title>Placeholder_HeartOverlay</title>
    <g id="Placeholder_HeartOverlay" stroke="none" stroke-width="1" fill="none" fill-rule="evenodd">
        <path d="M1143.11923,153.879923 C1044.55828,153.879923 909.559406,176.275296 767.379339,267.071452 C627.668996,179.425832 494.987864,157.713708 397.946739,157.713708 C221.722487,157.713708 56.6309873,228.999318 -55.0005031,353.312617 C-235.252304,554.377515 -217.052343,873.948099 -6.55593186,1208.28445 C75.9328243,1339.54411 186.766404,1468.33648 313.900157,1580.54109 C428.19135,1681.35823 550.461648,1765.28394 677.405422,1830.00277 L775.206462,1879.87992 L872.475562,1828.93994 C998.203473,1763.15828 1119.48588,1678.0179 1232.94117,1575.94814 C1358.89705,1462.52886 1468.43878,1332.59774 1549.86365,1200.19934 C1755.45861,865.825031 1770.69491,546.63403 1590.59509,346.366255 C1480.33144,223.988828 1317.29172,153.879923 1143.11923,153.879923 M1142.29839,368.969916 C1261.3465,368.969916 1366.00251,418.125324 1431.62138,490.929903 C1547.70752,619.863363 1514.40443,852.982033 1367.93918,1090.98971 C1298.97862,1202.98218 1205.03124,1316.11163 1090.00836,1419.61465 C987.44091,1511.78578 879.481172,1586.48532 773.306205,1641.96992 C666.523657,1587.5844 557.50065,1513.98394 454.097777,1422.83609 C338.049602,1320.50795 242.963008,1208.43968 172.977149,1097.1294 C23.9296729,860.637694 -12.9809377,626.874736 102.839394,497.751779 C169.711395,423.355429 276.493944,372.797746 397.554671,372.797746 C515.235722,372.797746 646.473449,420.626678 767.610124,540.881196 C890.569544,417.860029 1023.59204,368.969916 1142.29839,368.969916" id="Fill-1" fill="#D7088B" transform="translate(768.626057, 1016.879923) rotate(30.000000) translate(-768.626057, -1016.879923) "></path>
    </g>
</svg>